<?xml version="1.0" encoding="utf-8"?>
<!-- Generator: Adobe Illustrator 26.0.3, SVG Export Plug-In . SVG Version: 6.00 Build 0)  -->
<svg version="1.1" id="Layer_1" xmlns="http://www.w3.org/2000/svg" xmlns:xlink="http://www.w3.org/1999/xlink" x="0px" y="0px"
	 viewBox="0 0 1556.8 196.6" style="enable-background:new 0 0 1556.8 196.6;" xml:space="preserve">
<style type="text/css">
	.st0{fill:#FFFFFF;}
	.st1{fill-rule:evenodd;clip-rule:evenodd;fill:#FFFFFF;}
</style>
<g>
	<g>
		<path class="st0" d="M552.7,196.1h2.2l10.2-18.6c1.9-3.6,3.6-6.9,5.6-10.5h0.2c0.4,3.4,0.8,7.2,1.2,10.7l2.3,18.4h2.1l-4.2-31.1
			h-2.2L552.7,196.1z M560.2,185.3h13.6l0.2-1.7h-13.3L560.2,185.3z"/>
		<path class="st0" d="M592.5,196.6c3.1,0,6.3-1.7,8.8-4.2h0.2L601,196h1.6l6.9-33.9h-1.9l-2,9.9l-0.9,4.5h-0.2
			c-1.4-2.2-3.9-3.7-7.3-3.7c-7.2,0-12.6,7.1-12.6,15.1C584.5,193.7,587.7,196.6,592.5,196.6z M592.9,194.9c-3.9,0-6.4-2.3-6.4-7.3
			c0-6.6,4.6-13.1,10.7-13.1c2.6,0,5.1,1.2,7,4.1l-2.4,11.3C599,193.1,595.7,194.9,592.9,194.9z"/>
		<path class="st0" d="M620.2,196.1h2.3l14.3-22.6h-2.1l-8.9,14.3c-1.5,2.4-2.9,4.6-4,6.6h-0.2c-0.5-2-1.1-4.3-1.6-6.5l-3.6-14.4
			h-1.9L620.2,196.1z"/>
		<path class="st0" d="M649.8,196.6c7,0,12.9-6.2,12.9-14c0-5.7-3.4-9.8-9.1-9.8c-7,0-12.9,6.2-12.9,14
			C640.7,192.6,644.1,196.6,649.8,196.6z M649.9,194.9c-4.6,0-7.3-3.3-7.3-8.4c0-6.5,5.1-12,10.8-12c4.6,0,7.3,3.3,7.3,8.4
			C660.8,189.4,655.7,194.9,649.9,194.9z"/>
		<path class="st0" d="M680,196.6c3.3,0,6.9-1.6,9.3-3.8l-1-1.4c-2.3,2.1-5.2,3.5-8.1,3.5c-5,0-8.5-2.9-8.5-8.6
			c0-6.5,5.7-11.7,11.2-11.7c3.5,0,5.7,1.2,7.5,3.5l1.4-1.2c-1.6-2.2-4.5-4-8.4-4c-7,0-13.6,5.6-13.6,13.7
			C669.8,193.2,674,196.6,680,196.6z"/>
		<path class="st0" d="M705.6,196.6c3.1,0,6.3-1.7,8.8-4.2h0.2l-0.5,3.6h1.6l4.5-22.6h-1.6l-0.9,3.1h-0.2c-1.4-2.2-4-3.7-7.3-3.7
			c-7.2,0-12.6,7.1-12.6,15.1C697.7,193.7,700.9,196.6,705.6,196.6z M706,194.9c-3.9,0-6.4-2.3-6.4-7.3c0-6.6,4.6-13.1,10.7-13.1
			c2.6,0,5.1,1.2,7,4.1L715,190C712.1,193.1,708.9,194.9,706,194.9z"/>
		<path class="st0" d="M737.5,196.6c2.9,0,5.5-0.7,7.4-1.9l-0.7-1.5c-1.7,0.9-3.9,1.6-6.3,1.6c-3,0-4.8-1.6-4.8-4.9
			c0-0.7,0.1-1.4,0.3-2.3L736,175h12l0.4-1.7h-12.1l1.5-7.5h-1.6l-1.8,7.5l-7.1,0.2L727,175h7l-2.5,12.3c-0.2,1-0.4,1.9-0.4,2.9
			C731,194,733.1,196.6,737.5,196.6z"/>
		<path class="st0" d="M764.1,196.6c3.9,0,7.4-1.8,9.5-3.5l-0.9-1.4c-2.1,1.9-5.1,3.3-8.3,3.3c-4.8,0-7.7-3.2-7.7-8.1
			c0-7.1,5.4-12.4,10.6-12.4c4.1,0,6.6,2.7,6.6,6.8c0,0.7-0.1,1.6-0.3,2.3l1.3-0.4h-18.3l-0.3,1.6h18.9c0.2-0.5,0.5-1.9,0.5-3.4
			c0-4.9-2.9-8.6-8.3-8.6c-6.8,0-12.7,6-12.7,14.1C754.7,193,758.2,196.6,764.1,196.6z"/>
		<path class="st0" d="M781.9,196.1h1.9l3.1-15.2c3.7-3.9,7.3-6.3,11-6.3c2.8,0,4.4,1.5,4.4,4.2c0,1.2-0.2,2.3-0.5,3.7l-2.7,13.6
			h1.9l2.8-13.8c0.3-1.3,0.5-2.4,0.5-3.9c0-3.2-1.7-5.5-5.8-5.5c-4.5,0-7.9,2.7-11,5.6h-0.2l0.8-5h-1.6L781.9,196.1z"/>
		<path class="st0" d="M811,196.1h1.9l1.3-6.3l9-6.9l11.6-9.4h-2.6l-17.3,13.7h-0.2l4.9-25h-1.9L811,196.1z M822.2,183.1l7.1,12.9
			h2.1l-7.8-14.1L822.2,183.1z"/>
		<path class="st0" d="M847.1,196.6c3.1,0,6.3-1.7,8.8-4.2h0.2l-0.5,3.6h1.6l4.5-22.6h-1.6l-0.9,3.1H859c-1.4-2.2-4-3.7-7.3-3.7
			c-7.2,0-12.6,7.1-12.6,15.1C839.1,193.7,842.3,196.6,847.1,196.6z M847.5,194.9c-3.9,0-6.4-2.3-6.4-7.3c0-6.6,4.6-13.1,10.7-13.1
			c2.6,0,5.1,1.2,7,4.1l-2.4,11.3C853.6,193.1,850.3,194.9,847.5,194.9z"/>
		<path class="st0" d="M866.7,196.1h1.9l3.1-15.2c3.7-3.9,7.3-6.3,11-6.3c2.8,0,4.4,1.5,4.4,4.2c0,1.2-0.2,2.3-0.5,3.7l-2.7,13.6
			h1.9l2.8-13.8c0.3-1.3,0.5-2.4,0.5-3.9c0-3.2-1.7-5.5-5.8-5.5c-4.5,0-7.9,2.7-11,5.6h-0.2l0.8-5h-1.6L866.7,196.1z"/>
		<path class="st0" d="M907.2,196.6c2.9,0,5.5-0.7,7.4-1.9l-0.7-1.5c-1.7,0.9-3.9,1.6-6.3,1.6c-3,0-4.8-1.6-4.8-4.9
			c0-0.7,0.1-1.4,0.3-2.3l2.6-12.6h12.1l0.4-1.7H906l1.5-7.5h-1.6l-1.8,7.5l-7.1,0.2l-0.3,1.5h7l-2.5,12.3c-0.2,1-0.4,1.9-0.4,2.9
			C900.8,194,902.8,196.6,907.2,196.6z"/>
		<path class="st0" d="M932.7,196.6c7,0,12.9-6.2,12.9-14c0-5.7-3.4-9.8-9.1-9.8c-7,0-12.9,6.2-12.9,14
			C923.6,192.6,926.9,196.6,932.7,196.6z M932.8,194.9c-4.6,0-7.3-3.3-7.3-8.4c0-6.5,5.1-12,10.8-12c4.6,0,7.3,3.3,7.3,8.4
			C943.7,189.4,938.5,194.9,932.8,194.9z"/>
		<path class="st0" d="M961,196.6c7,0,12.9-6.2,12.9-14c0-5.7-3.4-9.8-9.1-9.8c-7,0-12.9,6.2-12.9,14
			C951.9,192.6,955.2,196.6,961,196.6z M961.1,194.9c-4.6,0-7.3-3.3-7.3-8.4c0-6.5,5.1-12,10.8-12c4.6,0,7.3,3.3,7.3,8.4
			C971.9,189.4,966.8,194.9,961.1,194.9z"/>
		<path class="st0" d="M982.9,196.1h1.9l2.6-12.9c3.4-5,7.2-8.5,11-8.5c1.6,0,2.7,0.3,4,1.1l0.9-1.7c-1.2-0.8-2.6-1.3-4.6-1.3
			c-4.2,0-8,3.6-10.6,7.3h-0.2l1.2-6.7h-1.6L982.9,196.1z"/>
	</g>
	<path class="st1" d="M1524.9,84.5v-2h4.6V45.8c0-4.5-0.3-7.4-0.9-8.7s-1.7-2-3.3-2c-2.4,0-4.5,1.6-6.4,4.7c-1.8,3.2-2.8,7-2.8,11.5
		v31.1h4.8v2h-32v-2h6.2V2h-6.2V0h27.1v41.2c1.2-3.5,3-6.2,5.5-8.3s6.2-3.2,11.3-3.2c11.6,0,17.5,6.3,17.5,18.8v33.9h6.3v2
		L1524.9,84.5L1524.9,84.5z M1460.6,76.9c1.7,3.2,4.7,4.8,9.1,4.8s8-1.5,10.6-4.5s4.3-6.4,5.1-10.2l2,0.2c-1.4,6.5-4.1,11.1-7.9,14
		c-3.9,2.9-9.3,4.4-16.1,4.4c-8.7,0-15.4-2.3-20-7c-4.7-4.7-7-11.6-7-20.6s2.6-16,7.9-20.9s12.7-7.3,22.1-7.3
		c6.7,0,11.8,1.3,15.3,3.9c3.5,2.6,5.3,5.8,5.3,9.7s-0.8,6.8-2.5,8.6s-4,2.7-7,2.7s-5.3-0.8-7.2-2.4c-1.8-1.6-2.7-3.9-2.7-7
		c0-1.4,0.2-2.7,0.6-4.1h3.7c0.5-1.5,0.8-2.9,0.8-4.1c0-3.6-1.8-5.4-5.4-5.4c-3.3,0-5.7,1.8-7.1,5.4s-2.1,9.6-2.1,17.9v5.9
		C1458.1,68.4,1458.9,73.7,1460.6,76.9z M1401.5,42.7c0.3,0.3,0.8,0.6,1.5,1s1.2,0.6,1.7,0.8s1.1,0.4,2.1,0.7
		c0.9,0.3,1.6,0.5,2.1,0.6c5.1,1.3,8.8,2.4,11,3.3c2.3,0.9,4.4,2.1,6.4,3.4c4.1,2.9,6.2,7.5,6.2,13.8s-1.9,11.2-5.6,14.4
		c-3.8,3.3-8.9,4.9-15.4,4.9c-4.7,0-9.2-1.1-13.5-3.3c-0.9-0.6-1.6-0.9-2.1-0.9c-1.7,0-3.3,1.4-4.8,4.2h-1.4V65.4h1.4
		c2,6.5,4.6,11.1,7.9,13.7s7.4,3.9,12.4,3.9c7.7,0,11.5-2.4,11.5-7.3c0-2.1-0.9-3.7-2.8-4.7c-2.9-1.7-6.7-2.9-11.3-3.8
		c-5.1-1.4-9.4-3.2-12.8-5.4c-4.1-2.7-6.2-7-6.2-12.8s1.8-10.5,5.4-14s8.4-5.2,14.4-5.2c3.7,0,7.5,0.9,11.4,2.6
		c1.4,0.6,2.5,0.9,3.3,0.9c0.7,0,1.4-0.3,1.9-0.8s1.2-1.5,1.9-2.9h1.2v17.2h-1.4c-3.8-9.8-9.8-14.6-17.8-14.6
		c-3.5,0-6.2,0.6-7.9,1.9c-1.7,1.2-2.6,2.8-2.6,4.7c0,1.1,0.3,2,0.8,2.6C1400.7,41.9,1401.2,42.4,1401.5,42.7z M1355.2,85.6
		c-9.4,0-16.5-2.4-21.3-7.2c-4.8-4.8-7.2-11.7-7.2-20.7s2.6-15.9,7.7-20.7s12.4-7.3,21.7-7.3c9.3,0,16.3,2.2,20.8,6.7
		c4.6,4.5,6.9,11.3,6.9,20.4C1383.8,76,1374.2,85.6,1355.2,85.6z M1362.2,62.3v-9.6c0-7.3-0.4-12.6-1.2-15.9c-0.8-3.3-2.6-5-5.5-5
		c-1.7,0-3,0.5-4,1.4s-1.7,2.5-2.2,4.7c-0.7,3.4-1,8.5-1,15.4v8.8c0,8.2,0.2,13.1,0.7,14.8s1,3,1.5,4.1c0.8,1.8,2.4,2.7,4.8,2.7
		c2.9,0,4.8-1.7,5.7-5.1C1361.8,76.1,1362.2,70.7,1362.2,62.3z M1321.7,62.4c0,8.2-3.1,13.9-9.2,17.2c-6.2,3.3-15,4.9-26.6,4.9
		h-33.1v-2.1h7.3V7.8h-7.3V5.6h33.7c10.4,0,18.3,1.4,23.5,4.2s7.8,7.6,7.8,14.2c0,10.3-6.2,16.4-18.6,18.5v0.2
		C1314.2,44.7,1321.7,51.2,1321.7,62.4z M1295.5,22.8c0-5.6-0.7-9.4-2-11.7c-1.4-2.2-3.9-3.3-7.8-3.3h-3.6v34.7h2.9
		c3.9,0,6.6-1.2,8.2-3.5c1.5-2.4,2.3-6,2.3-10.9V22.8z M1298.5,59.5c0-5-1-8.7-3-11.2s-5.6-3.7-10.8-3.7h-2.6v37.7h5.3
		c4.1,0,7-1.4,8.7-4.3s2.5-7.1,2.5-12.6L1298.5,59.5L1298.5,59.5z M1197.9,82.4h4.6V45.8c0-4.5-0.3-7.4-0.9-8.7s-1.7-2-3.3-2
		c-2.4,0-4.5,1.6-6.4,4.7c-1.8,3.2-2.8,7-2.8,11.5v31.1h4.8v2h-32v-2h6.2V32.9h-6.2v-2h27.1v10.4c1.2-3.5,3-6.2,5.5-8.3
		s6.2-3.2,11.3-3.2c11.6,0,17.5,6.3,17.5,18.8v33.9h6.3v2h-31.9v-2.1H1197.9z M1126.1,55.4v4.4c0,7.4,0.9,12.9,2.8,16.7
		c1.9,3.8,5.1,5.6,9.8,5.6c8.7,0,14.4-4.7,17.1-14l2,0.3c-1.4,5.4-4,9.6-7.7,12.6s-9.3,4.5-16.7,4.5c-9.7,0-17-2.5-21.8-7.5
		s-7.3-11.9-7.3-20.8s2.7-15.7,8.2-20.4c5.4-4.7,12.4-7.1,20.8-7.1c17,0,25.2,8.6,24.6,25.7H1126.1z M1137.8,47.6
		c0-6.1-0.4-10.2-1.1-12.4s-2.1-3.3-4.3-3.3c-2.1,0-3.7,1.2-4.7,3.5c-1,2.4-1.5,6.4-1.5,12.2v5.5h11.6V47.6z M1074.6,76.6
		c-2.6,6-7.7,9-15.5,9c-6.5,0-11.5-2.3-15-7c-3.6-4.7-5.3-11.6-5.3-20.8c0-18.7,7.4-28,22.3-28c6.6,0,11,1.8,13.1,5.5V2h-6.9V0h28.2
		v82.4h5.5v2h-25L1074.6,76.6z M1074.4,44.6c0-3.2-0.6-6-1.9-8.2c-1.3-2.3-3.2-3.4-5.6-3.4c-2.5,0-4.2,1.7-5.1,5s-1.4,9.1-1.4,17.3
		v5.9c0,7.9,0.4,13.1,1.2,15.7c0.8,2.6,2.3,3.9,4.6,3.9c2.2,0,4.1-1,5.7-2.9c1.6-2,2.4-4.8,2.4-8.7V44.6H1074.4z M983.9,82.4h4.6
		V45.8c0-4.5-0.3-7.4-0.9-8.7c-0.6-1.3-1.7-2-3.3-2c-2.4,0-4.5,1.6-6.4,4.7c-1.8,3.2-2.8,7-2.8,11.5v31.1h4.8v2h-32v-2h6.2V32.9
		h-6.2v-2H975v10.4c1.2-3.5,3-6.2,5.5-8.3s6.2-3.2,11.3-3.2c11.6,0,17.5,6.3,17.5,18.8v33.9h6.3v2h-31.9v-2.1H983.9z M932.4,85.6
		c-9,0-14.2-2.8-15.5-8.3c-1,2.9-2.4,5-4.4,6.3c-2,1.4-4.8,2-8.6,2c-11.1,0-16.7-4.5-16.7-13.6c0-5.3,2.1-9,6.4-11
		c4.2-2,10.8-3,19.5-3h3.3v-8.7c0-7.1-0.4-11.9-1.2-14.4c-0.8-2.4-2.3-3.7-4.6-3.7c-1.4,0-2.6,0.4-3.7,1.1c-1.1,0.7-1.6,1.7-1.6,2.9
		s0.2,2.5,0.7,3.8h2.8c0.6,1.6,0.9,3.5,0.9,5.7s-0.9,4.1-2.8,5.7c-1.9,1.6-4.2,2.4-7.1,2.4c-6.5,0-9.7-3.1-9.7-9.3
		c0-9.2,7.8-13.9,23.5-13.9c8.9,0,15.1,1.5,18.5,4.6c3.4,3,5.1,8.6,5.1,16.7v22.9c0,3.9,1.1,5.9,3.3,5.9c2.6,0,4.1-3.9,4.5-11.6
		l1.7,0.1c-0.3,6.6-1.5,11.2-3.7,13.6C940.9,84.4,937.3,85.6,932.4,85.6z M916.4,59.8h-0.8c-4.7,0-7,3.4-7,10.2v1.8
		c0,3.9,0.2,6.4,0.6,7.5c0.4,1.1,1.2,1.7,2.4,1.7s2.3-1,3.3-2.9s1.5-4.6,1.5-7.9V59.8z M862,85.6h-9.5L823.8,7.8h-5.2V5.6h36.8v2.1
		h-8L866.3,64L886,7.8h-8.8V5.6h17.2v2.1h-5.3L862,85.6z M779,58.5c3.2,3.6,5.7,7.1,7.3,10.4c1.7,3.3,2.5,7.5,2.5,12.5
		c0,8.1-2.9,15.4-8.6,21.7c-5.7,6.4-12.2,9.6-19.5,9.6c-4.9,0-8.7-1-11.4-3s-4.1-4.6-4.1-7.8c0-3.2,0.9-5.6,2.6-7.4
		c1.8-1.8,4-2.6,6.7-2.6c6,0,9,2.7,9,8.1c0,1.1-0.2,2.5-0.7,4.1H759c-1.4,4,0,6,4.1,6c3.7,0,6.5-1.8,8.5-5.3s3-7.9,3-13.1
		s-2-10.4-6-15.8c-5.7,6.5-13.6,9.8-23.5,9.8c-10,0-17.9-1.7-23.8-5.1c-5.9-3.4-8.8-8.7-8.8-16c0-5,1.4-9.1,4.1-12.2
		c2.7-3.1,7.2-5.3,13.6-6.8c-6.6-6-9.9-12.6-9.9-19.7s2.5-12.5,7.5-16.1s11.2-5.5,18.6-5.5c7.4,0,13,1.4,16.7,4.1s5.6,6.3,5.6,10.9
		c0,8-6,14-18.1,18.2c1.5,1,4.2,2.7,8.2,5.2c8.3,5.4,14.2,9.8,17.7,13.1c1.1-5.3,1.8-10.8,1.9-16.4h-8.9v-2.3H789v2.3h-7.9
		C780.9,46.5,780.2,52.8,779,58.5z M754.3,30.3c0.8-2.3,1.2-5.7,1.2-10.2c0-8.9-3.3-13.3-9.8-13.3c-2.9,0-5.3,0.9-7.3,2.6
		c-2,1.8-3,4.6-3,8.4s0.9,7,2.7,9.5s5.3,5.5,10.4,9C751.6,34.6,753.6,32.6,754.3,30.3z M752.1,61.7c-10.7-7.1-17.6-11.9-20.5-14.4
		c-1.1,2.4-1.7,7.3-1.7,14.6c0,7.4,1.5,12.7,4.4,15.9c2.9,3.2,7.4,4.8,13.4,4.8c8,0,14.3-3.1,18.9-9.2
		C763.2,69.8,758.4,65.9,752.1,61.7z M674.3,52.5c-3.4,0-5.9-1.1-7.5-3.4c-1.6-2.3-1.8-5.4-0.6-9.3h4.1c1.9-3.8,1.1-5.7-2.4-5.7
		c-2.8,0-5.2,1.8-7.3,5.4c-2.1,3.6-3.2,7.9-3.2,12.8v30.2h8v2h-35.1v-2h6.2V32.9h-6.2v-2h27.1v10.8c1-3.8,2.9-6.8,5.6-8.8
		c2.8-2.1,5.9-3.1,9.5-3.1c3.5,0,6.4,1,8.6,3c2.2,2,3.3,4.8,3.3,8.4c0,3.6-0.8,6.4-2.5,8.4C680.2,51.5,677.7,52.5,674.3,52.5z
		 M594.4,55.4v4.4c0,7.4,0.9,12.9,2.8,16.7c1.9,3.8,5.1,5.6,9.8,5.6c8.7,0,14.4-4.7,17.1-14l2,0.3c-1.4,5.4-4,9.6-7.7,12.6
		s-9.3,4.5-16.7,4.5c-9.7,0-17-2.5-21.8-7.5s-7.3-11.9-7.3-20.8s2.7-15.7,8.2-20.4c5.4-4.7,12.4-7.1,20.8-7.1
		c17,0,25.2,8.6,24.6,25.7H594.4z M606.1,47.6c0-6.1-0.4-10.2-1.1-12.4c-0.7-2.2-2.1-3.3-4.3-3.3c-2.1,0-3.7,1.2-4.7,3.5
		c-1,2.4-1.5,6.4-1.5,12.2v5.5h11.6V47.6z M536.2,55.4v4.4c0,7.4,0.9,12.9,2.8,16.7c1.9,3.8,5.1,5.6,9.8,5.6c8.7,0,14.4-4.7,17.1-14
		l2,0.3c-1.4,5.4-4,9.6-7.7,12.6s-9.3,4.5-16.7,4.5c-9.7,0-17-2.5-21.8-7.5s-7.3-11.9-7.3-20.8s2.7-15.7,8.2-20.4
		c5.4-4.7,12.4-7.1,20.8-7.1c17,0,25.2,8.6,24.6,25.7H536.2z M547.9,47.6c0-6.1-0.4-10.2-1.1-12.4c-0.7-2.2-2.1-3.3-4.3-3.3
		c-2.1,0-3.7,1.2-4.7,3.5c-1,2.4-1.5,6.4-1.5,12.2v5.5h11.6V47.6z M475.6,82.3h6.2V11.9h-0.5l-16.9,72.5h-14.1l-19.8-72.9H430v70.7
		h6.2v2.1H421v-2.1h6.2V7.8H421V5.6h30.4l15,58l13.5-58H510v2.1h-6.2v74.6h6.2v2.1h-34.4V82.3z M387.4,52.5c-3.4,0-5.9-1.1-7.5-3.4
		c-1.6-2.3-1.8-5.4-0.6-9.3h4.1c1.9-3.8,1.1-5.7-2.4-5.7c-2.8,0-5.2,1.8-7.3,5.4c-2.1,3.6-3.2,7.9-3.2,12.8v30.2h8v2h-35.1v-2h6.2
		V32.9h-6.2v-2h27.1v10.8c1-3.8,2.9-6.8,5.6-8.8c2.8-2.1,5.9-3.1,9.5-3.1c3.5,0,6.4,1,8.6,3s3.3,4.8,3.3,8.4c0,3.6-0.8,6.4-2.5,8.4
		C393.3,51.5,390.8,52.5,387.4,52.5z M307.5,55.4v4.4c0,7.4,0.9,12.9,2.8,16.7c1.9,3.8,5.1,5.6,9.8,5.6c8.7,0,14.4-4.7,17.1-14
		l2,0.3c-1.4,5.4-4,9.6-7.7,12.6s-9.3,4.5-16.7,4.5c-9.7,0-17-2.5-21.8-7.5s-7.3-11.9-7.3-20.8s2.7-15.7,8.2-20.4
		c5.4-4.7,12.4-7.1,20.8-7.1c17,0,25.2,8.6,24.6,25.7H307.5z M319.2,47.6c0-6.1-0.4-10.2-1.1-12.4s-2.1-3.3-4.3-3.3
		s-3.7,1.2-4.7,3.5c-1,2.4-1.5,6.4-1.5,12.2v5.5h11.6V47.6z M256,76.6c-2.6,6-7.7,9-15.5,9c-6.5,0-11.5-2.3-15-7
		c-3.6-4.7-5.3-11.6-5.3-20.8c0-18.7,7.4-28,22.3-28c6.6,0,11,1.8,13.1,5.5V2h-6.9V0h28.2v82.4h5.5v2h-25L256,76.6z M255.8,44.6
		c0-3.2-0.6-6-1.9-8.2c-1.3-2.3-3.2-3.4-5.6-3.4c-2.5,0-4.2,1.7-5.1,5c-0.9,3.3-1.4,9.1-1.4,17.3v5.9c0,7.9,0.4,13.1,1.2,15.7
		s2.3,3.9,4.6,3.9c2.2,0,4.1-1,5.7-2.9c1.6-2,2.4-4.8,2.4-8.7V44.6H255.8z M165.3,82.4h4.6V45.8c0-4.5-0.3-7.4-0.9-8.7
		c-0.6-1.3-1.7-2-3.3-2c-2.4,0-4.5,1.6-6.4,4.7c-1.8,3.2-2.8,7-2.8,11.5v31.1h4.8v2h-32v-2h6.2V32.9h-6.2v-2h27.1v10.4
		c1.2-3.5,3-6.2,5.5-8.3s6.2-3.2,11.3-3.2c11.6,0,17.5,6.3,17.5,18.8v33.9h6.3v2h-31.9v-2.1H165.3z M113.8,85.6
		c-9,0-14.2-2.8-15.5-8.3c-1,2.9-2.4,5-4.4,6.3c-2,1.4-4.8,2-8.6,2c-11.1,0-16.7-4.5-16.7-13.6c0-5.3,2.1-9,6.4-11
		c4.2-2,10.8-3,19.5-3h3.3v-8.7c0-7.1-0.4-11.9-1.2-14.4c-0.8-2.4-2.3-3.7-4.6-3.7c-1.4,0-2.6,0.4-3.7,1.1c-1.1,0.7-1.6,1.7-1.6,2.9
		s0.2,2.5,0.7,3.8h2.8c0.6,1.6,0.9,3.5,0.9,5.7s-0.9,4.1-2.8,5.7c-1.9,1.6-4.2,2.4-7.1,2.4c-6.5,0-9.7-3.1-9.7-9.3
		c0-9.2,7.8-13.9,23.5-13.9c8.9,0,15.1,1.5,18.5,4.6c3.4,3,5.1,8.6,5.1,16.7v22.9c0,3.9,1.1,5.9,3.3,5.9c2.6,0,4.1-3.9,4.5-11.6
		l1.7,0.1c-0.3,6.6-1.5,11.2-3.7,13.6C122.3,84.4,118.7,85.6,113.8,85.6z M97.8,59.8H97c-4.7,0-7,3.4-7,10.2v1.8
		c0,3.9,0.2,6.4,0.6,7.5S91.8,81,93,81c1.2,0,2.3-1,3.3-2.9s1.5-4.6,1.5-7.9V59.8z M43.4,85.6h-9.5L5.2,7.8H0V5.6h36.8v2.1h-8
		L47.7,64L67.4,7.8h-8.8V5.6h17.2v2.1h-5.3L43.4,85.6z"/>
</g>
</svg>
